HIERARCHY
ROOT root
{
	OFFSET	0	13.1	24.9
	CHANNELS 6  Xposition Yposition Zposition Xrotation Yrotation Zrotation
	JOINT spine_1
	{
		OFFSET	0	9.99999	0
		CHANNELS 3  Xrotation Yrotation Zrotation
		JOINT spine_2
		{
			OFFSET	0	112	-10
			CHANNELS 3  Xrotation Yrotation Zrotation
			JOINT spine_3
			{
				OFFSET	0	206.5	19.3
				CHANNELS 3  Xrotation Yrotation Zrotation
				JOINT spine_4
				{
					OFFSET	0	110.4	14.6
					CHANNELS 3  Xrotation Yrotation Zrotation
					JOINT neck_1
					{
						OFFSET	0	71.8	-50.3
						CHANNELS 3  Xrotation Yrotation Zrotation
						JOINT neck_2
						{
							OFFSET	0	86.2	-25.8
							CHANNELS 3  Xrotation Yrotation Zrotation
							JOINT head_ee
							{
								OFFSET	0	179.8	-8.7
								CHANNELS 3  Xrotation Yrotation Zrotation
								End Site
								{
									OFFSET	1	0	0
								}
							}
						}
					}
					JOINT left_clavicle
					{
						OFFSET	-43.2	22.4	-70.8
						CHANNELS 3  Xrotation Yrotation Zrotation
						JOINT left_shoulder
						{
							OFFSET	-93.9	-5.79999	48.7
							CHANNELS 3  Xrotation Yrotation Zrotation
							JOINT left_elbow
							{
								OFFSET	-291.4	-30.8	15.2
								CHANNELS 3  Xrotation Yrotation Zrotation
								JOINT left_lowarm_twist
								{
									OFFSET	-110.7	-3.89999	13.6
									CHANNELS 3  Xrotation Yrotation Zrotation
									JOINT left_hand
									{
										OFFSET	-110.7	-3.89999	13.6
										CHANNELS 3  Xrotation Yrotation Zrotation
										JOINT left_ee
										{
											OFFSET	-80.8	-5.10001	12.1
											CHANNELS 3  Xrotation Yrotation Zrotation
											End Site
											{
												OFFSET	1	0	0
											}
										}
									}
								}
							}
						}
					}
					JOINT right_clavicle
					{
						OFFSET	43.2	22.4	-70.8
						CHANNELS 3  Xrotation Yrotation Zrotation
						JOINT right_shoulder
						{
							OFFSET	93.9	-5.79999	48.7
							CHANNELS 3  Xrotation Yrotation Zrotation
							JOINT right_elbow
							{
								OFFSET	291.4	-30.8	15.2
								CHANNELS 3  Xrotation Yrotation Zrotation
								JOINT right_lowarm_twist
								{
									OFFSET	110.7	-3.89999	13.6
									CHANNELS 3  Xrotation Yrotation Zrotation
									JOINT right_hand
									{
										OFFSET	110.7	-3.89999	13.6
										CHANNELS 3  Xrotation Yrotation Zrotation
										JOINT right_ee
										{
											OFFSET	80.8	-5.10001	12.1
											CHANNELS 3  Xrotation Yrotation Zrotation
											End Site
											{
												OFFSET	1	0	0
											}
										}
									}
								}
							}
						}
					}
				}
			}
		}
	}
	JOINT left_hip
	{
		OFFSET	-82.8	-127.5	0.300001
		CHANNELS 3  Xrotation Yrotation Zrotation
		JOINT left_knee
		{
			OFFSET	-28.2	-396.7	2.2
			CHANNELS 3  Xrotation Yrotation Zrotation
			JOINT left_ankle
			{
				OFFSET	-11.7	-411.3	35.4
				CHANNELS 3  Xrotation Yrotation Zrotation
				JOINT left_toes
				{
					OFFSET	0	-60	-88.6
					CHANNELS 3  Xrotation Yrotation Zrotation
					JOINT left_foot_ee
					{
						OFFSET	-22.5	-16.5	-42.2
						CHANNELS 3  Xrotation Yrotation Zrotation
						End Site
						{
							OFFSET	1	0	0
						}
					}
				}
			}
		}
	}
	JOINT right_hip
	{
		OFFSET	82.8	-127.5	0.300001
		CHANNELS 3  Xrotation Yrotation Zrotation
		JOINT right_knee
		{
			OFFSET	28.2	-396.7	2.2
			CHANNELS 3  Xrotation Yrotation Zrotation
			JOINT right_ankle
			{
				OFFSET	11.7	-411.3	35.4
				CHANNELS 3  Xrotation Yrotation Zrotation
				JOINT right_toes
				{
					OFFSET	0	-60	-88.6
					CHANNELS 3  Xrotation Yrotation Zrotation
					JOINT right_foot_ee
					{
						OFFSET	22.5	-16.5	-42.2
						CHANNELS 3  Xrotation Yrotation Zrotation
						End Site
						{
							OFFSET	1	0	0
						}
					}
				}
			}
		}
	}
}
MOTION
Frames: 10
Frame Time: 0.02
400.371663213 711.292 -1234.78169547 -162.950592067 -63.6632477151 -167.89047733 5.37212 0.613708 4.2721 5.3822 0.340877 4.30242 5.39803 -0.166015 4.31269 5.37246 0.516538 4.28491 -14.9161 14.4978 -0.651261 -15.6647 28.1078 4.44205 -0.0 0.0 -0.0 -7.69765 5.11121 -13.8308 -17.0827 -12.8251 65.2938 1.88863 -43.0891 0.745704 46.1171 -0.705065 -5.69211 -1.58385 17.4898 -2.52111 -0.0 0.0 -0.0 10.3689 -3.28265 -20.2047 -44.2575 55.0718 -58.0041 0.81036 21.8718 -0.15658 55.4605 1.38686 6.67375 -5.26778 -14.9666 27.7435 0.0 0.0 0.0 114.343 84.9867 -116.767 -21.9137 0.267994 3.33169 24.3711 -31.7262 -4.15319 -14.3182 0.0 0.0 -0.0 0.0 -0.0 29.7782 24.6246 -9.33051 -31.3171 0.00863144 -4.74669 23.0484 -6.03428 3.10165 19.3802 -0.0 -0.0 0.0 0.0 0.0 
400.119781468 711.292 -1234.85377967 -162.66397501 -64.1172447332 -167.571290503 5.37212 0.613708 4.2721 5.3822 0.340877 4.30242 5.39803 -0.166015 4.31269 5.37246 0.516538 4.28491 -14.9161 14.4978 -0.651261 -15.6647 28.1078 4.44205 -0.0 0.0 -0.0 -7.69765 5.11121 -13.8308 -17.0827 -12.8251 65.2938 1.88863 -43.0891 0.745704 46.1171 -0.705065 -5.69211 -1.58385 17.4898 -2.52111 -0.0 0.0 -0.0 10.3689 -3.28265 -20.2047 -44.2575 55.0718 -58.0041 0.81036 21.8718 -0.15658 55.4605 1.38686 6.67375 -5.26778 -14.9666 27.7435 0.0 0.0 0.0 114.343 84.9867 -116.767 -21.9137 0.267994 3.33169 24.3711 -31.7262 -4.15319 -14.3182 0.0 0.0 -0.0 0.0 -0.0 29.7782 24.6246 -9.33051 -31.3171 0.00863144 -4.74669 23.0484 -6.03428 3.10165 19.3802 -0.0 -0.0 0.0 0.0 0.0 
400.086494512 711.292 -1234.86313699 -162.625364445 -64.177108775 -167.52838593 5.37212 0.613708 4.2721 5.3822 0.340877 4.30242 5.39803 -0.166015 4.31269 5.37246 0.516538 4.28491 -14.9161 14.4978 -0.651261 -15.6647 28.1078 4.44205 -0.0 0.0 -0.0 -7.69765 5.11121 -13.8308 -17.0827 -12.8251 65.2938 1.88863 -43.0891 0.745704 46.1171 -0.705065 -5.69211 -1.58385 17.4898 -2.52111 -0.0 0.0 -0.0 10.3689 -3.28265 -20.2047 -44.2575 55.0718 -58.0041 0.81036 21.8718 -0.15658 55.4605 1.38686 6.67375 -5.26778 -14.9666 27.7435 0.0 0.0 0.0 114.343 84.9867 -116.767 -21.9137 0.267994 3.33169 24.3711 -31.7262 -4.15319 -14.3182 0.0 0.0 -0.0 0.0 -0.0 29.7782 24.6246 -9.33051 -31.3171 0.00863144 -4.74669 23.0484 -6.03428 3.10165 19.3802 -0.0 -0.0 0.0 0.0 0.0 
399.703760933 711.292 -1234.9679127 -162.168571037 -64.8631990858 -167.022386018 5.37212 0.613708 4.2721 5.3822 0.340877 4.30242 5.39803 -0.166015 4.31269 5.37246 0.516538 4.28491 -14.9161 14.4978 -0.651261 -15.6647 28.1078 4.44205 -0.0 0.0 -0.0 -7.69765 5.11121 -13.8308 -17.0827 -12.8251 65.2938 1.88863 -43.0891 0.745704 46.1171 -0.705065 -5.69211 -1.58385 17.4898 -2.52111 -0.0 0.0 -0.0 10.3689 -3.28265 -20.2047 -44.2575 55.0718 -58.0041 0.81036 21.8718 -0.15658 55.4605 1.38686 6.67375 -5.26778 -14.9666 27.7435 0.0 0.0 0.0 114.343 84.9867 -116.767 -21.9137 0.267994 3.33169 24.3711 -31.7262 -4.15319 -14.3182 0.0 0.0 -0.0 0.0 -0.0 29.7782 24.6246 -9.33051 -31.3171 0.00863144 -4.74669 23.0484 -6.03428 3.10165 19.3802 -0.0 -0.0 0.0 0.0 0.0 
402.482992295 714.693 -1234.29879201 -162.837926368 -65.6078878482 -167.892896598 5.16273 0.667691 4.32578 5.17306 0.391345 4.35942 5.19342 -0.138099 4.37474 5.16715 0.553878 4.34179 -15.2554 14.3343 -0.216314 -16.0041 27.5591 4.87422 -0.0 0.0 -0.0 -7.61586 3.95994 -13.9953 -15.5509 -11.371 64.4203 2.06737 -45.6771 0.870756 45.0212 -0.635866 -5.57012 -1.23044 15.6443 -1.20189 -0.0 0.0 -0.0 10.4302 -4.5266 -20.2279 -45.3203 54.8916 -57.608 0.78693 21.2969 -0.147961 56.1376 1.44239 6.74042 -5.30586 -15.0725 27.9386 0.0 0.0 0.0 132.576 83.2841 -135.996 -21.8855 0.268472 3.32739 23.3676 -30.684 -3.95191 -15.5654 0.0 0.0 -0.0 0.0 -0.0 32.0904 25.2624 -11.2585 -31.4962 0.0161446 -4.77315 22.2487 -10.8515 3.0126 16.8655 -0.0 -0.0 0.0 0.0 0.0 
405.498493225 713.112 -1233.59981126 -162.238844032 -65.9425423603 -167.239735651 5.13296 0.613831 4.47608 5.14405 0.328058 4.50598 5.15986 -0.221505 4.51246 5.13179 0.4932 4.49094 -14.6517 14.0242 -0.58056 -15.3205 27.1471 4.25268 -0.0 0.0 -0.0 -7.43445 3.27469 -13.8239 -14.1735 -10.7094 63.4262 2.08812 -45.963 0.885638 45.1213 -0.642088 -5.58132 -1.15123 15.7752 -0.655753 -0.0 0.0 -0.0 10.4473 -4.75799 -20.2421 -45.9183 55.1256 -57.8872 0.720734 19.6481 -0.124806 55.8569 1.41928 6.71286 -5.2343 -14.78 27.6392 0.0 0.0 0.0 144.058 82.8171 -148.259 -19.906 0.296746 3.02498 24.4187 -31.2374 -4.13238 -15.1583 0.0 0.0 -0.0 0.0 -0.0 33.3063 25.3944 -12.1496 -32.1519 0.044353 -4.86981 22.0388 -11.039 2.98784 18.6801 -0.0 -0.0 0.0 0.0 0.0 
421.157188856 711.965 -1233.26823928 -165.040318215 -65.7343522685 -170.154962397 4.83825 0.713208 4.68158 4.85034 0.414201 4.71736 4.87451 -0.185058 4.73186 4.84372 0.563731 4.70187 -15.0061 14.614 -0.549731 -15.774 28.2751 4.60707 -0.0 0.0 -0.0 -7.18102 2.80996 -13.4436 -10.8418 -8.25269 60.5103 2.51824 -51.2751 1.20872 45.198 -0.646872 -5.58989 -0.798172 11.4407 -0.3475 -0.0 0.0 -0.0 10.2423 -4.84703 -19.8263 -48.8905 54.7721 -57.4086 0.725676 19.7724 -0.126472 56.8498 1.50164 6.80984 -5.39498 -16.2159 27.7325 0.0 0.0 0.0 159.92 78.9617 -167.497 -17.0798 0.318973 2.59196 24.0576 -30.8085 -4.0574 -15.5452 0.0 0.0 -0.0 0.0 -0.0 38.3282 24.4176 -16.3018 -30.4246 -0.0275686 -4.61452 19.3162 -13.7523 2.66301 16.6522 -0.0 -0.0 0.0 0.0 0.0 
420.22240709 711.965 -1234.19828181 -163.908128913 -67.4965582829 -168.921608259 4.83825 0.713208 4.68158 4.85034 0.414201 4.71736 4.87451 -0.185058 4.73186 4.84372 0.563731 4.70187 -15.0061 14.614 -0.549731 -15.774 28.2751 4.60707 -0.0 0.0 -0.0 -7.18102 2.80996 -13.4436 -10.8418 -8.25269 60.5103 2.51824 -51.2751 1.20872 45.198 -0.646872 -5.58989 -0.798172 11.4407 -0.3475 -0.0 0.0 -0.0 10.2423 -4.84703 -19.8263 -48.8905 54.7721 -57.4086 0.725676 19.7724 -0.126472 56.8498 1.50164 6.80984 -5.39498 -16.2159 27.7325 0.0 0.0 0.0 159.92 78.9617 -167.497 -17.0798 0.318973 2.59196 24.0576 -30.8085 -4.0574 -15.5452 0.0 0.0 -0.0 0.0 -0.0 38.3282 24.4176 -16.3018 -30.4246 -0.0275686 -4.61452 19.3162 -13.7523 2.66301 16.6522 -0.0 -0.0 0.0 0.0 0.0 
444.018180279 705.762 -1246.06216186 -162.323274228 -66.8969661922 -168.287262191 4.75535 0.589629 4.87397 4.76851 0.278672 4.90152 4.78189 -0.351252 4.89687 4.74869 0.425576 4.89098 -15.0336 14.2522 -0.810254 -15.7709 27.737 4.23078 -0.0 0.0 -0.0 -7.40585 1.68361 -14.1938 -6.86805 -8.49367 57.3202 3.44516 -59.6175 1.97416 44.3246 -0.593101 -5.49191 -0.655275 8.08187 -0.88104 -0.0 0.0 -0.0 9.79082 -4.37284 -18.9671 -52.0448 52.833 -56.0798 0.699273 19.1061 -0.117685 57.949 1.59477 6.91553 -5.42395 -16.7058 27.5725 0.0 0.0 0.0 172.6 77.4489 179.255 -15.1031 0.321816 2.28871 26.5258 -29.4123 -4.32272 -14.9634 0.0 0.0 -0.0 0.0 -0.0 41.6556 24.3115 -18.404 -22.0854 -0.265037 -3.35787 14.2315 -14.1826 2.00472 14.8908 -0.0 -0.0 0.0 0.0 0.0 
447.752127704 701.937 -1247.49313346 -159.209636453 -68.7320056275 -165.235588405 4.89013 0.552237 4.84913 4.90317 0.24293 4.87437 4.913 -0.372178 4.86622 4.88019 0.400088 4.86401 -14.1162 14.175 -1.45631 -14.7723 27.9312 3.34738 -0.0 0.0 -0.0 -7.31926 1.61003 -14.0379 -5.19124 -7.30667 56.5902 3.7604 -61.7553 2.24908 44.5584 -0.607345 -5.51821 -0.703418 7.76591 -1.32918 -0.0 0.0 -0.0 9.67278 -4.95105 -18.6922 -53.0038 53.1152 -55.6766 0.646265 17.7521 -0.100927 58.4041 1.63393 6.95877 -5.39818 -16.8244 27.303 0.0 0.0 0.0 174.215 78.635 178.044 -14.6231 0.320927 2.21507 27.6622 -28.3684 -4.41629 -14.7772 0.0 0.0 -0.0 0.0 -0.0 42.2313 24.4067 -18.4242 -16.0956 -0.321696 -2.44098 11.6602 -13.4575 1.65578 14.1397 -0.0 -0.0 0.0 0.0 0.0 
